<svg xmlns="http://www.w3.org/2000/svg" xmlns:xlink="http://www.w3.org/1999/xlink" viewBox="0 0 128 128" width="128" height="128">
  <!-- Background Circle -->
  <circle cx="64" cy="64" r="60" fill="#f0f4f8" stroke="#d1d5db" stroke-width="4" />
  <!-- Map Marker -->
  <path d="M64 18c-12.7 0-23 10.3-23 23 0 18 23 48 23 48s23-30 23-48c0-12.7-10.3-23-23-23z" fill="#4CAF50" />
  <circle cx="64" cy="41" r="9" fill="#ffffff" />
  <!-- Pencil Icon -->
  <path d="M81 81l-10 10 3 3 10-10-3-3z" fill="#FF9800" />
  <path d="M74 84l-2 2 6 6 2-2-6-6z" fill="#FFC107" />
  <path d="M72 86l2-2-2-2-10 10v2h2l10-10z" fill="#FFA000" />
</svg>
